<svg xmlns="http://www.w3.org/2000/svg" viewBox="0 0 512 512">
  <rect width="512" height="512" rx="96" fill="#4f46e5"/>
  <path d="M256 133.3c-67.7 0-122.7 55-122.7 122.7v42.7h245.3V256c0-67.7-55-122.7-122.7-122.7zm-133.3 181.3v32c0 17.6 14.4 32 32 32h202.7c17.6 0 32-14.4 32-32v-32H122.7zm133.3-154.7c-11.7 0-21.3 9.6-21.3 21.3s9.6 21.3 21.3 21.3 21.3-9.6 21.3-21.3-9.6-21.3-21.3-21.3z" fill="#ffffff"/>
  <rect x="106.7" y="389.3" width="298.7" height="21.3" rx="10.7" fill="#ffffff" opacity="0.8"/>
</svg>
